<svg id="eHtw7jpaPLD1" xmlns="http://www.w3.org/2000/svg" xmlns:xlink="http://www.w3.org/1999/xlink" viewBox="-0.5 -0.5 140 140" shape-rendering="geometricPrecision" text-rendering="geometricPrecision"><ellipse rx="57.11458" ry="58.353208" transform="matrix(1.206042 0 0 1.199592 69.5 69.5)" fill="#d2dbed" stroke-width="0"/><g transform="matrix(.929927 0 0 0.941294 4.966618 4.003345)"><g><rect width="60" height="22.28" rx="3.34" ry="3.34" transform="matrix(.707107-.707107 0.707107 0.707107 16.369627 107.016032)" fill="#fff" stroke="#000"/></g><g><path d="M54,50c0-19.33,15.67-35,35-35c9.28,0,18.18,3.69,24.75,10.25C120.31,31.82,124,40.72,124,50s-3.69,18.18-10.25,24.75C107.18,81.31,98.28,85,89,85s-18.18-3.69-24.75-10.25C57.69,68.18,54,59.28,54,50ZM89,28c-12.15,0-22,9.85-22,22s9.85,22,22,22s22-9.85,22-22-9.85-22-22-22Z" transform="matrix(.707107 0.707107-.707107 0.707107 61.422836-48.287842)" fill="#fff" stroke="#000" stroke-miterlimit="10"/></g></g></svg>
